REM DIRINDEX 1\2,1\3,1\4,1\5
REM DIRNAME "folder01","folder02","folder03","folder04","folder05"
TITLE ""
FILE "P1Q_t_0001-0009.mp3" MP3
  TRACK 01 AUDIO
    TITLE "2:cjc173_0905"
    INDEX 01 00:00:00
  TRACK 02 AUDIO
    TITLE "2:cjc173_0906"
    INDEX 01 00:03:26
  TRACK 03 AUDIO
    TITLE "0:"
    INDEX 01 00:04:36
  TRACK 04 AUDIO
    TITLE "2:cjc173_0907"
    INDEX 01 00:05:57
  TRACK 05 AUDIO
    TITLE "0:"
    INDEX 01 00:09:13
  TRACK 06 AUDIO
    TITLE "2:cjc173_0908"
    INDEX 01 00:09:62
  TRACK 07 AUDIO
    TITLE "0:"
    INDEX 01 00:11:26
  TRACK 08 AUDIO
    TITLE "2:cjc173_0909"
    INDEX 01 00:11:75
  TRACK 09 AUDIO
    TITLE "0:"
    INDEX 01 00:13:07
  TRACK 10 AUDIO
    TITLE "3:cjc173_0910"
    INDEX 01 00:13:52
  TRACK 11 AUDIO
    TITLE "0:"
    INDEX 01 00:14:63
  TRACK 12 AUDIO
    TITLE "4:cjc173_0911"
    INDEX 01 00:15:18
  TRACK 13 AUDIO
    TITLE "0:"
    INDEX 01 00:23:07
  TRACK 14 AUDIO
    TITLE "5:cjc173_0912"
    INDEX 01 00:23:27
  TRACK 15 AUDIO
    TITLE "0:"
    INDEX 01 00:28:01
  TRACK 16 AUDIO
    TITLE "3:cjc173_0913"
    INDEX 01 00:28:46
  TRACK 17 AUDIO
    TITLE "0:"
    INDEX 01 00:29:59
  TRACK 18 AUDIO
    TITLE "4:cjc173_0914"
    INDEX 01 00:30:06
  TRACK 19 AUDIO
    TITLE "0:"
    INDEX 01 00:32:28
  TRACK 20 AUDIO
    TITLE "5:cjc173_0915"
    INDEX 01 00:32:48
  TRACK 21 AUDIO
    TITLE "0:"
    INDEX 01 00:37:31
  TRACK 22 AUDIO
    TITLE "3:cjc173_0916"
    INDEX 01 00:38:01
  TRACK 23 AUDIO
    TITLE "0:"
    INDEX 01 00:39:08
  TRACK 24 AUDIO
    TITLE "4:cjc173_0917"
    INDEX 01 00:39:30
  TRACK 25 AUDIO
    TITLE "0:"
    INDEX 01 00:43:04
  TRACK 26 AUDIO
    TITLE "5:cjc173_0918"
    INDEX 01 00:43:24
  TRACK 27 AUDIO
    TITLE "0:"
    INDEX 01 00:48:29
  TRACK 28 AUDIO
    TITLE "3:cjc173_0919"
    INDEX 01 00:48:74
  TRACK 29 AUDIO
    TITLE "0:"
    INDEX 01 00:49:71
  TRACK 30 AUDIO
    TITLE "4:cjc173_0920"
    INDEX 01 00:50:20
  TRACK 31 AUDIO
    TITLE "0:"
    INDEX 01 00:53:28
  TRACK 32 AUDIO
    TITLE "5:cjc173_0921"
    INDEX 01 00:53:50
  TRACK 33 AUDIO
    TITLE "0:"
    INDEX 01 00:57:47
  TRACK 34 AUDIO
    TITLE "3:cjc173_0922"
    INDEX 01 00:58:18
  TRACK 35 AUDIO
    TITLE "0:"
    INDEX 01 00:59:25
  TRACK 36 AUDIO
    TITLE "4:cjc173_0923"
    INDEX 01 00:59:50
  TRACK 37 AUDIO
    TITLE "0:"
    INDEX 01 01:03:21
  TRACK 38 AUDIO
    TITLE "5:cjc173_0924"
    INDEX 01 01:03:42
  TRACK 39 AUDIO
    TITLE "0:"
    INDEX 01 01:07:01
  TRACK 40 AUDIO
    TITLE "3:cjc173_0925"
    INDEX 01 01:07:48
  TRACK 41 AUDIO
    TITLE "0:"
    INDEX 01 01:08:61
  TRACK 42 AUDIO
    TITLE "4:cjc173_0926"
    INDEX 01 01:09:10
  TRACK 43 AUDIO
    TITLE "0:"
    INDEX 01 01:10:19
  TRACK 44 AUDIO
    TITLE "5:cjc173_0927"
    INDEX 01 01:10:40
  TRACK 45 AUDIO
    TITLE "0:"
    INDEX 01 01:15:71
  TRACK 46 AUDIO
    TITLE "3:cjc173_0928"
    INDEX 01 01:16:41
  TRACK 47 AUDIO
    TITLE "0:"
    INDEX 01 01:17:50
  TRACK 48 AUDIO
    TITLE "4:cjc173_0929"
    INDEX 01 01:17:70
  TRACK 49 AUDIO
    TITLE "0:"
    INDEX 01 01:20:23
  TRACK 50 AUDIO
    TITLE "5:cjc173_0930"
    INDEX 01 01:20:49
  TRACK 51 AUDIO
    TITLE "0:"
    INDEX 01 01:26:10
  TRACK 52 AUDIO
    TITLE "3:cjc173_0931"
    INDEX 01 01:26:57
  TRACK 53 AUDIO
    TITLE "0:"
    INDEX 01 01:27:62
  TRACK 54 AUDIO
    TITLE "4:cjc173_0932"
    INDEX 01 01:28:09
  TRACK 55 AUDIO
    TITLE "0:"
    INDEX 01 01:31:48
  TRACK 56 AUDIO
    TITLE "5:cjc173_0933"
    INDEX 01 01:31:68
  TRACK 57 AUDIO
    TITLE "0:"
    INDEX 01 01:36:14
  TRACK 58 AUDIO
    TITLE "3:cjc173_0934"
    INDEX 01 01:36:61
  TRACK 59 AUDIO
    TITLE "0:"
    INDEX 01 01:38:07
  TRACK 60 AUDIO
    TITLE "4:cjc173_0935"
    INDEX 01 01:38:29
  TRACK 61 AUDIO
    TITLE "0:"
    INDEX 01 01:41:55
  TRACK 62 AUDIO
    TITLE "5:cjc173_0936"
    INDEX 01 01:41:72
  TRACK 63 AUDIO
    TITLE "0:"
    INDEX 01 01:46:18
